<?xml version="1.0" encoding="UTF-8"?>
<svg id="Livello_2" data-name="Livello 2" xmlns="http://www.w3.org/2000/svg" viewBox="0 0 960.03 297.87">
  <defs>
    <style>
      .cls-1 {
        fill: #3e721d;
      }

      .cls-2 {
        fill: #5a903a;
      }

      .cls-3 {
        fill: #5a903b;
      }

      .cls-4 {
        fill: #5b913b;
      }

      .cls-5 {
        fill: #77b155;
      }
    </style>
  </defs>
  <g id="Livello_1-2" data-name="Livello 1">
    <g>
      <g>
        <path class="cls-1" d="M85.22,156.48c-7.55-.28-13.52-3.43-17.42-9.98-3.33-5.59-3.76-11.55-1.48-17.64,.42-1.13,.55-1.63-.89-2.03-13.95-3.93-19.51-20.13-10.95-31.91,1.06-1.46,2.57-2.6,3.96-3.97-2.03-1.07-4.17-1.55-5.96-2.8-7.06-4.97-10.35-11.75-8.98-20.29,1.33-8.34,6.37-13.82,14.42-16.42,1.13-.36,1.85-.44,1.24-2.03-3.63-9.45-.11-19.67,8.39-24.78,8.56-5.15,19.28-3.41,26.02,4.22,.25,.28,.51,.55,.84,.92,1.06-2.91,2.28-5.59,4.18-7.97,4.9-6.14,14.39-8.91,21.81-6.27,.36,.13,.75,.2,1.08,.38,1.19,.67,1.66,.38,2.04-.99,1.43-5.11,4.4-9.17,8.99-11.89,11.65-6.92,26.05-1.45,30.19,11.42,.21,.66,.39,1.33,.6,2.07,4.69-2.12,9.48-2.61,14.4-1.2,2.78,.8,5.37,2.01,7.48,4.03,1.01,.97,1.65,.83,2.68-.03,11.86-9.86,29.5-3.93,33.03,11.08,.33,1.42,.6,2.89,.47,4.36-.11,1.14,.23,1.49,1.46,1.51,9.4,.17,16.53,5.5,19.36,14.47,.47,1.5,.89,1.9,2.52,1.3,6.53-2.42,12.77-1.65,18.54,2.3,10.83,7.42,11.85,23.01,2.11,31.81-.41,.37-.83,.74-1.44,1.29,4.25,1.21,7.82,3.25,10.47,6.55,4.83,6.01,6.15,12.75,3.54,20.08-.54,1.52-.47,2.06,1.25,2.55,13.9,4,19.19,21.45,9.89,32.4-.88,1.04-1.17,1.67-.08,2.97,9.19,10.93,4.53,27.56-8.94,32.25-.78,.27-1.53,.42-1.84,1.42-2.19,7.07-7.04,11.43-14.37,13.63,1.16,1.09,2.28,1.94,3.16,2.99,8.66,10.29,5.89,25.07-5.91,31.48-2.66,1.44-5.57,2.25-8.62,2.17-1.72-.05-2.23,.44-2.27,2.22-.24,9.52-6.85,17.27-16.18,19.19-10.03,2.07-19.87-3.51-23.3-13.2-.17-.48-.33-.96-.54-1.59-.42,.39-.83,.71-1.18,1.09-5.66,6.16-12.67,8.26-20.64,6.11-8.27-2.23-13.01-8.03-14.74-16.35-.31-1.48,.51-3.46-.6-4.34-.97-.76-2.83-.32-4.27-.56-4.8-.83-8.91-2.95-12.08-6.73-.45-.54-.82-.97-1.74-.77-7.28,1.56-13.62-.27-19-5.42-.34-.32-.69-.56-1.15-.62-.75-1.8-1.92-3.34-3.03-4.91-.36-1.08-.95-2.14-1.02-3.24-.13-1.93-1.03-1.56-2.21-1.05-3.55,1.55-7.23,1.5-11,1-2.87-.38-5.19-1.89-7.64-3.19-1.5-1.18-3.03-2.29-4.24-3.81-3.56-4.51-4.94-9.65-4.63-15.32,1.04-5.52,3.26-10.39,8.25-14.05-3.5-.99-6.24-2.64-8.92-4.39-2.43-3.23-5.05-6.34-5.96-10.45-.17-.77-.92-.82-1.57-.54-2.42,1.05-4.97,1.42-7.58,1.49ZM154.54,45.49c-1.11-2.06-2.25-3.91-4-5.22-4.11-3.07-8.6-4.02-13.47-2-1.25,.52-1.79,.05-2.44-.96-4.14-6.4-11.27-8.32-17.83-4.42-8.58,5.11-8.65,16.69-.27,22.43,1.26,.86,1.41,1.34,.96,2.67-1.73,5.17-1.09,10.02,2.86,13.96,3.66,3.64,8.2,4.93,13.19,3.33,4.83-1.55,7.98-4.82,8.95-9.97,.15-.8,.14-1.91,1.36-2.04,4.57-.48,7.75-2.95,9.87-6.91,.56-1.05,1.06-.98,1.56,.03,.85,1.74,2.08,3.13,3.59,4.37,4.76,3.93,12.38,3.67,16.8-.67,2.05-2.01,3.6-4.25,4.06-7.18,.1-.66-.11-1.78,1.12-1.94,5.13-.67,8.58-3.57,10.84-8.34,1.48,3.17,3.51,5.61,6.53,7.12,.19,.09,.44,.46,.38,.56-.88,1.66-1.02,3.52-1.53,5.28-.05,.18-.53,.27-.83,.34-8.12,1.71-12.31,7.51-11.26,15.57,.69,5.29,6.52,10.21,11.82,10.58,5.93,.41,12.93-3.88,13.94-10.81,.14-.96,.61-1.69,1.67-1.78,1.1-.09,2.1-.5,3.1-.91,.86-.36,1.3-.37,1.91,.66,4.69,7.87,14.9,8.96,21.15,2.31,5.74-6.11,3.88-15.38-2.17-19.55-3.8-2.61-7.95-2.94-12.21-1.46-1.45,.5-2.16,.18-2.93-1.04-1.15-1.85-2.63-3.46-4.68-4.38-1.11-.5-.87-1.14-.49-1.99,1.75-3.93,1.5-7.81-.59-11.53-3.88-6.9-12.77-8.91-19.14-4.33-2.05,1.48-3.62,3.43-4.66,6.07-.69-1.47-1.34-2.48-2.1-3.43-3.25-4.03-7.57-5.78-12.54-4.88-4.98,.9-8.84,3.75-10.19,8.93-.63,2.41-1.53,4.01-4.24,4.01-.42,0-.84,.28-1.25,.45-3.22,1.37-5.3,3.86-6.87,7.08Zm99.23,16.59c-9.26-.17-15.84,9.12-12.23,18.15,.49,1.21,.3,1.63-.66,2.24-2.12,1.35-3.97,2.98-5.1,5.31-.56,1.16-1.08,.8-1.56-.1-2.2-4.13-5.58-6.24-10.27-6.92-6.56-.94-12.78,4.48-13.92,9.4-1.34,5.8,.29,10.46,4.78,14.13,4.07,3.32,9.66,3.49,14.57,.8,2.28-1.26,3.72-3.24,5.05-5.36,.37-.59,.63-1.18,1.25-.08,3.23,5.66,8.32,8.04,14.57,6.91,7.21-1.31,12.19-9.52,9.8-16.45-.7-2.03-.87-2.99,1.36-4.37,4.61-2.86,6.47-9.5,4.76-14.61-1.84-5.51-6.67-9.03-12.4-9.04Zm-.9,62.67c.28,7.78,5.95,13.22,12.91,13.13,8.4-.12,13.41-5.49,13.4-13.11,0-7.77-5.13-12.94-13.02-13.11-7.61-.17-12.82,5.25-13.29,13.09ZM99.49,44.48c.02-7.5-5.82-13.48-13.19-13.45-7.23,.04-13.27,5.65-13.15,13.28,.11,7.71,5.64,13.05,13.16,13.01,7.72-.05,12.7-5.31,13.19-12.84Zm80.52,43.08c.22-7.43-6.29-13.18-13.04-13.18-7.36,0-13.05,6.1-13.13,13.09-.09,7.45,5.98,13.22,12.7,13.28,7.79,.06,13.56-6.1,13.47-13.18Zm-31.81-55c8.19-.44,13.16-5.73,13.25-13.03,.09-7.16-5.21-13.3-13.35-13.31-6.91,0-12.76,5.35-12.93,12.93-.16,7.36,5.8,13.38,13.03,13.41Zm74.29,148.77c6.92-.06,13.19-4.99,13.28-12.94,.08-7.6-5.42-13.45-12.98-13.41-7.63,.04-13.1,5.46-13.24,13.19-.12,7.02,6,13.15,12.94,13.16ZM117.91,75.21c.52-6.88-5.79-13.16-12.88-13.2-6.89-.05-13.28,5.8-13.22,12.99,.06,7.55,5.61,12.91,13.1,13.25,5.96,.27,13.65-5.5,13-13.03Zm105.44,55.95c.22-7.57-5.69-13.21-12.82-13.39-7.4-.19-13.29,5.98-13.31,12.87-.02,7.75,5.71,13.32,12.7,13.46,7.46,.16,13.43-5.72,13.44-12.94Zm49,37.53c7.25,.48,13.1-5.87,13.07-13-.04-7.22-5.89-13.05-13.17-13.09-7.38-.04-13.21,6.01-13.16,13.07,.04,7.34,5.77,13.31,13.27,13.03Z"/>
        <path class="cls-5" d="M85.22,156.48c2.61-.08,5.16-.44,7.58-1.49,.65-.28,1.41-.23,1.57,.54,.91,4.11,3.53,7.22,5.96,10.45-.23,.3-.54,.56-.67,.89-1.04,2.53-2.43,4.91-3.78,7.25-3.45,5.97-6.77,12.01-10.6,17.77-3.51,5.27-6.9,10.62-10.48,15.86-1.75,2.56-3.87,4.88-5.22,7.71-.14,.13-.48,.21-.14,.48,.05-.16,.09-.32,.14-.48,.89-.02,1.3-.75,1.82-1.27,5.13-5.11,10.26-10.22,15.36-15.35,4.76-4.79,9.49-9.6,14.24-14.4-.32,5.67,1.07,10.81,4.63,15.32,1.2,1.52,2.74,2.64,4.24,3.81-2.7,3.26-6.28,5.54-9.41,8.31-7.87,6.96-15.7,13.94-23.16,21.34-.95,.94-2.12,1.76-2.87,2.77-1.22,1.63-3.43,2.29-4.07,4.4-.03,.05-.06,.1-.09,.15,.03-.05,.06-.1,.08-.16,1.65-.49,2.66-1.9,4.03-2.8,4.68-3.07,9.39-6.08,14.28-8.81,8.76-4.9,17.83-9.11,27.15-12.79,5.27-2.08,10.62-3.97,15.93-5.94,1.11,1.58,2.28,3.12,3.03,4.91-3.28,1.81-6.57,3.59-9.83,5.44-10.79,6.15-20.19,14-28.33,23.37-10.5,12.09-18.02,25.88-23.24,40.97-1.33,3.85-2.44,7.78-3.54,11.71-.43,1.55-1.08,1.74-2.45,1.06-16.97-8.43-31.94-19.49-44.57-33.65-8.97-10.06-16.41-21.14-22.38-33.23-.86-1.74-.43-2.26,1.23-2.68,10.23-2.59,20.01-6.35,29.41-11.17,9.54-4.9,18.22-10.99,26.08-18.29,8.67-8.05,15.8-17.3,21.53-27.62,2.41-4.34,4.64-8.8,6.43-13.45,.11-.28,.08-.62,.11-.93Z"/>
        <path class="cls-3" d="M154.54,45.49c1.57-3.22,3.66-5.72,6.87-7.08,.41-.17,.83-.45,1.25-.45,2.71,0,3.62-1.6,4.24-4.01,1.35-5.18,5.21-8.02,10.19-8.93,4.97-.9,9.29,.85,12.54,4.88,.76,.95,1.41,1.96,2.1,3.43,1.04-2.65,2.61-4.59,4.66-6.07,6.37-4.58,15.25-2.57,19.14,4.33,2.09,3.72,2.35,7.6,.59,11.53-.38,.86-.62,1.49,.49,1.99,2.05,.92,3.53,2.53,4.68,4.38,.76,1.23,1.48,1.55,2.93,1.04,4.26-1.48,8.41-1.15,12.21,1.46,6.05,4.16,7.91,13.43,2.17,19.55-6.25,6.65-16.46,5.56-21.15-2.31-.61-1.02-1.06-1.02-1.91-.66-1,.42-1.99,.82-3.1,.91-1.05,.09-1.53,.82-1.67,1.78-1.01,6.93-8.01,11.22-13.94,10.81-5.3-.37-11.13-5.29-11.82-10.58-1.05-8.07,3.14-13.86,11.26-15.57,.3-.06,.78-.16,.83-.34,.5-1.76,.64-3.62,1.53-5.28,.05-.1-.2-.47-.38-.56-3.02-1.51-5.05-3.95-6.53-7.12-2.26,4.77-5.71,7.67-10.84,8.34-1.23,.16-1.02,1.27-1.12,1.94-.46,2.93-2.01,5.17-4.06,7.18-4.42,4.34-12.04,4.6-16.8,.67-1.51-1.25-2.74-2.63-3.59-4.37-.5-1.01-1-1.08-1.56-.03-2.13,3.96-5.3,6.42-9.87,6.91-1.22,.13-1.21,1.24-1.36,2.04-.97,5.15-4.12,8.42-8.95,9.97-4.99,1.6-9.53,.31-13.19-3.33-3.96-3.94-4.59-8.79-2.86-13.96,.44-1.33,.3-1.8-.96-2.67-8.38-5.74-8.32-17.32,.27-22.43,6.56-3.9,13.69-1.98,17.83,4.42,.65,1.01,1.19,1.48,2.44,.96,4.87-2.02,9.36-1.08,13.47,2,1.75,1.31,2.89,3.16,4,5.22Z"/>
        <path class="cls-3" d="M253.77,62.08c5.73,0,10.56,3.52,12.4,9.04,1.71,5.11-.15,11.75-4.76,14.61-2.23,1.38-2.06,2.35-1.36,4.37,2.39,6.93-2.59,15.14-9.8,16.45-6.25,1.14-11.34-1.24-14.57-6.91-.62-1.09-.88-.5-1.25,.08-1.33,2.12-2.76,4.1-5.05,5.36-4.9,2.69-10.5,2.52-14.57-.8-4.49-3.67-6.13-8.33-4.78-14.13,1.14-4.92,7.36-10.34,13.92-9.4,4.69,.67,8.08,2.79,10.27,6.92,.48,.9,.99,1.26,1.56,.1,1.13-2.33,2.98-3.96,5.1-5.31,.96-.61,1.15-1.03,.66-2.24-3.61-9.03,2.97-18.31,12.23-18.15Z"/>
        <path class="cls-2" d="M252.87,124.75c.48-7.84,5.68-13.26,13.29-13.09,7.89,.17,13.02,5.34,13.02,13.11,0,7.62-5.01,12.99-13.4,13.11-6.96,.1-12.63-5.34-12.91-13.13Z"/>
        <path class="cls-2" d="M99.49,44.48c-.49,7.53-5.46,12.79-13.19,12.84-7.52,.05-13.04-5.3-13.16-13.01-.11-7.63,5.92-13.24,13.15-13.28,7.37-.04,13.2,5.95,13.19,13.45Z"/>
        <path class="cls-2" d="M180.01,87.56c.09,7.08-5.68,13.25-13.47,13.18-6.72-.05-12.79-5.83-12.7-13.28,.08-6.99,5.77-13.1,13.13-13.09,6.75,0,13.26,5.76,13.04,13.18Z"/>
        <path class="cls-2" d="M148.21,32.56c-7.23-.03-13.19-6.05-13.03-13.41,.17-7.58,6.01-12.94,12.93-12.93,8.14,.01,13.44,6.15,13.35,13.31-.09,7.3-5.06,12.59-13.25,13.03Z"/>
        <path class="cls-2" d="M222.5,181.32c-6.94-.02-13.06-6.15-12.94-13.16,.13-7.73,5.61-13.15,13.24-13.19,7.56-.04,13.06,5.82,12.98,13.41-.08,7.95-6.35,12.88-13.28,12.94Z"/>
        <path class="cls-2" d="M117.91,75.21c.65,7.53-7.04,13.3-13,13.03-7.5-.34-13.04-5.7-13.1-13.25-.06-7.19,6.32-13.03,13.22-12.99,7.09,.05,13.41,6.32,12.88,13.2Z"/>
        <path class="cls-2" d="M223.34,131.16c0,7.22-5.98,13.1-13.44,12.94-6.98-.15-12.72-5.72-12.7-13.46,.02-6.89,5.91-13.06,13.31-12.87,7.13,.18,13.04,5.82,12.82,13.39Z"/>
        <path class="cls-2" d="M272.34,168.69c-7.5,.28-13.22-5.68-13.27-13.03-.04-7.06,5.79-13.11,13.16-13.07,7.28,.04,13.13,5.87,13.17,13.09,.04,7.13-5.82,13.48-13.07,13Z"/>
        <path class="cls-4" d="M131.74,210.03c-5.31,1.97-10.66,3.86-15.93,5.94-9.32,3.68-18.39,7.89-27.15,12.79-4.89,2.74-9.6,5.75-14.28,8.81-1.37,.9-2.38,2.31-4.03,2.8h0c.64-2.1,2.85-2.77,4.07-4.4,.76-1.01,1.93-1.83,2.87-2.77,7.45-7.4,15.29-14.39,23.16-21.34,3.13-2.77,6.71-5.05,9.41-8.31,2.45,1.29,4.77,2.8,7.64,3.19,3.77,.5,7.45,.55,11-1,1.17-.51,2.08-.88,2.21,1.05,.07,1.1,.66,2.16,1.02,3.24Z"/>
        <path class="cls-4" d="M69.58,215.45c1.35-2.83,3.47-5.15,5.22-7.71,3.58-5.23,6.97-10.59,10.48-15.86,3.83-5.75,7.16-11.8,10.6-17.77,1.35-2.34,2.74-4.72,3.78-7.25,.14-.33,.44-.6,.67-.89,2.68,1.75,5.42,3.4,8.92,4.39-4.99,3.67-7.21,8.53-8.25,14.05-4.75,4.8-9.48,9.62-14.24,14.4-5.1,5.13-10.23,10.25-15.36,15.35-.53,.52-.94,1.25-1.82,1.27h0Z"/>
        <path class="cls-4" d="M69.58,215.45c-.05,.16-.09,.32-.14,.48-.34-.27,0-.35,.14-.48,0,0,0,0,0,0Z"/>
        <path class="cls-4" d="M70.35,240.37c-.03,.05-.06,.1-.08,.16,.03-.05,.06-.1,.09-.15,0,0,0,0,0,0Z"/>
      </g>
      <g>
        <path d="M338.3,136.34V8.18h58.4c11.72,0,21.85,1.89,30.39,5.68,8.54,3.78,15.1,9.25,19.68,16.39,4.58,7.14,6.87,15.53,6.87,25.17s-2.29,18.34-6.87,25.36c-4.58,7.02-11.14,12.45-19.68,16.29-8.54,3.84-18.67,5.77-30.39,5.77h-38.45l16.29-15.93v49.43h-36.25Zm36.25-45.22l-16.29-17.03h36.25c7.57,0,13.24-1.62,17.03-4.85,3.78-3.23,5.68-7.84,5.68-13.82s-1.89-10.28-5.68-13.64c-3.78-3.36-9.46-5.03-17.03-5.03h-36.25l16.29-16.66V91.12Z"/>
        <path d="M460.41,136.34V8.18h36.25V107.59h60.96v28.74h-97.21Z"/>
        <path d="M561.47,136.34L618.04,8.18h35.7l56.75,128.15h-37.71l-44.31-110.4h14.28l-44.31,110.4h-36.98Zm30.94-25.08l9.34-26.55h62.61l9.34,26.55h-81.29Z"/>
        <path d="M717.27,136.34V8.18h29.84l70.48,85.31h-14.1V8.18h35.52V136.34h-29.84l-70.67-85.31h14.1v85.31h-35.33Z"/>
        <path d="M884.6,136.34V36.93h-39.36V8.18h114.79v28.74h-39.18v99.41h-36.25Z"/>
        <path d="M378.76,288.9v-100.79h-39.91v-29.14h116.38v29.14h-39.72v100.79h-36.75Z"/>
        <path d="M438.56,288.9l56.57-128.15h35.7l56.75,128.15h-37.71l-44.31-110.4h14.28l-44.31,110.4h-36.98Zm30.94-25.08l9.34-26.55h62.61l9.34,26.55h-81.29Z"/>
        <path d="M642.88,291.47c-10.62,0-20.78-1.31-30.48-3.94s-17.55-5.95-23.53-9.98l11.9-26.91c5.74,3.66,12.36,6.68,19.86,9.06,7.51,2.38,14.98,3.57,22.43,3.57,5.13,0,9.18-.43,12.17-1.28,2.99-.85,5.19-2.07,6.59-3.66,1.4-1.58,2.11-3.48,2.11-5.68,0-2.81-1.34-5.03-4.03-6.68-2.69-1.65-6.2-3.05-10.53-4.21-4.33-1.16-9.03-2.26-14.1-3.3-5.07-1.04-10.22-2.41-15.47-4.12-5.25-1.71-10.01-3.96-14.28-6.77-4.27-2.81-7.72-6.47-10.34-10.98-2.63-4.51-3.94-10.19-3.94-17.03,0-7.57,2.07-14.46,6.22-20.69,4.15-6.22,10.44-11.23,18.86-15.01,8.42-3.78,18.92-5.68,31.49-5.68,8.42,0,16.69,.95,24.81,2.84,8.12,1.89,15.29,4.73,21.51,8.51l-10.98,26.73c-6.1-3.42-12.15-5.92-18.12-7.51-5.98-1.58-11.78-2.38-17.39-2.38-5.01,0-9.03,.55-12.08,1.65-3.05,1.1-5.25,2.5-6.59,4.21-1.34,1.71-2.01,3.54-2.01,5.49,0,2.93,1.34,5.22,4.03,6.87,2.68,1.65,6.16,2.99,10.44,4.03,4.27,1.04,9,2.11,14.19,3.2,5.19,1.1,10.34,2.47,15.47,4.12,5.13,1.65,9.85,3.84,14.19,6.59,4.33,2.75,7.84,6.35,10.53,10.8,2.68,4.46,4.03,10.04,4.03,16.75,0,7.45-2.11,14.31-6.32,20.6-4.21,6.29-10.53,11.32-18.95,15.1-8.42,3.78-18.98,5.68-31.67,5.68Z"/>
        <path d="M738.08,288.9v-99.41h-39.36v-28.74h114.79v28.74h-39.18v99.41h-36.25Z"/>
        <path d="M855.61,260.71h67.01v28.19h-102.71V160.75h100.33v28.19h-64.63v71.77Zm-2.56-50.35h59.5v26.91h-59.5v-26.91Z"/>
      </g>
    </g>
  </g>
</svg>